#!OML:ASF G:\JayActor3\Patient Classification 1\Patient 1\Session 6\male.ASF
:FULLY-SPECIFIED
:DEGREES
764
root 22.2284 15.4566 -10.0502 20.6685 -59.5329 3.84469
lowerback 37.2958 -1.30646 0.337886
upperback 9.73628 -2.29301 -0.933519
thorax -7.65386 -1.3264 -0.257129
lowerneck 1.72512 0.355052 1.16787
upperneck -2.38142 0.527781 1.00309
head -1.01188 0.238198 0.106705
rclavicle 3.10104e-014 1.88845e-014
rhumerus -30.9109 10.037 -82.0522
rradius 64.233
rwrist -7.33253
rhand -36.1864 -4.9313
rfingers 7.12502
rthumb -9.28964 -34.7066
lclavicle 3.10104e-014 1.88845e-014
lhumerus -27.8138 -16.5138 78.0021
lradius 57.0022
lwrist 30.8052
lhand -34.4824 2.92698
lfingers 7.12502
lthumb -7.64524 32.7688
rfemur -75.5736 1.12793 18.5512
rtibia 64.1197
rfoot -8.69013 -14.0444
rtoes -14.7384
lfemur -40.5041 -1.21322 -27.113
ltibia 44.858
lfoot -28.0739 7.43732
ltoes -3.40278
765
root 22.1688 15.468 -10.0128 20.704 -59.5962 3.7609
lowerback 36.8477 -1.32386 0.334817
upperback 9.49006 -2.29411 -0.935752
thorax -7.77242 -1.31899 -0.262174
lowerneck 0.477842 0.402594 1.14631
upperneck -0.790888 0.550867 0.988894
head -0.314682 0.266476 0.109878
rclavicle 1.43125e-014 7.35503e-015
rhumerus -30.4632 9.56455 -82.551
rradius 62.5355
rwrist -7.13167
rhand -37.189 -4.89323
rfingers 7.12502
rthumb -10.2569 -34.6231
lclavicle 1.43125e-014 7.35503e-015
lhumerus -27.4193 -14.2792 78.5582
lradius 55.3537
lwrist 30.0308
lhand -35.5715 2.50495
lfingers 7.12502
lthumb -8.69635 32.3058
rfemur -75.0728 1.19213 18.6842
rtibia 63.125
rfoot -10.0161 -14.0304
rtoes -14.7082
lfemur -39.9764 -1.04525 -27.1212
ltibia 44.4945
lfoot -28.0979 7.41491
ltoes -3.45083
766
root 22.1068 15.4827 -9.9736 20.7453 -59.6964 3.69974
lowerback 36.3763 -1.34342 0.321044
upperback 9.24292 -2.30474 -0.962717
thorax -7.88238 -1.31564 -0.284822
lowerneck -0.698024 0.458289 1.12735
upperneck 0.72314 0.587266 0.984688
head 0.33064 0.299412 0.116785
rclavicle -6.12257e-014 -1.98785e-016
rhumerus -30.0156 9.14135 -83.0624
rradius 60.8416
rwrist -7.15226
rhand -38.0881 -4.92374
rfingers 7.12502
rthumb -11.1243 -34.6089
lclavicle -6.12257e-014 -1.98785e-016
lhumerus -27.1123 -12.0243 79.0553
lradius 53.8181
lwrist 29.4313
lhand -36.454 2.01647
lfingers 7.12502
lthumb -9.54786 31.7801
rfemur -74.5263 1.27645 18.79
rtibia 61.9666
rfoot -11.2961 -13.9022
rtoes -14.6084
lfemur -39.4258 -0.87496 -27.1424
ltibia 44.0645
lfoot -28.093 7.39189
ltoes -3.47767
767
root 22.0424 15.5005 -9.93327 20.7816 -59.8273 3.67103
lowerback 35.8861 -1.36179 0.294427
upperback 8.9963 -2.32133 -1.01264
thorax -7.98317 -1.31483 -0.323385
lowerneck -1.80846 0.517684 1.12784
upperneck 2.13738 0.630162 0.982514
head 0.950535 0.333875 0.122616
rclavicle 2.74323e-014 4.8901e-014
rhumerus -29.5782 8.76913 -83.583
rradius 59.1876
rwrist -7.43691
rhand -38.8688 -4.97344
rfingers 7.12502
rthumb -11.8771 -34.6166
lclavicle 2.74323e-014 4.8901e-014
lhumerus -26.8919 -9.83745 79.4926
lradius 52.3927
lwrist 29.0272
lhand -37.1596 1.38206
lfingers 7.12502
lthumb -10.2286 31.1134
rfemur -73.9528 1.38084 18.8628
rtibia 60.6883
rfoot -12.4461 -13.6885
rtoes -14.492
lfemur -38.8532 -0.699057 -27.1819
ltibia 43.5687
lfoot -28.0514 7.37236
ltoes -3.5254
768
root 21.9755 15.52 -9.892 20.8116 -59.9823 3.66957
lowerback 35.3917 -1.37642 0.257752
upperback 8.75047 -2.33917 -1.07934
thorax -8.07928 -1.31458 -0.374219
lowerneck -2.866 0.578084 1.15339
upperneck 3.45971 0.674917 0.971484
head 1.55142 0.367941 0.12264
rclavicle 3.18055e-015 -9.93923e-016
rhumerus -29.1604 8.46006 -84.1057
rradius 57.6007
rwrist -7.95114
rhand -39.5079 -5.05645
rfingers 7.12502
rthumb -12.4934 -34.663
lclavicle 3.18055e-015 -9.93923e-016
lhumerus -26.7458 -7.78382 79.8837
lradius 51.0763
lwrist 28.8531
lhand -37.7221 0.606884
lfingers 7.12502
lthumb -10.7713 30.3107
rfemur -73.361 1.49596 18.92
rtibia 59.3379
rfoot -13.4043 -13.4462
rtoes -14.4297
lfemur -38.262 -0.515248 -27.2381
ltibia 43.0212
lfoot -27.9786 7.35969
ltoes -3.60258
